HIERARCHY
ROOT Hips
{
  OFFSET 52.2773 100.719 18.2854
  CHANNELS 6 Xposition Yposition Zposition Zrotation Xrotation Yrotation
  JOINT spine
  {
    OFFSET 0 8.81705 0.507024
    CHANNELS 3 Zrotation Xrotation Yrotation
    JOINT spine1
    {
      OFFSET 0 10.7766 0
      CHANNELS 3 Zrotation Xrotation Yrotation
      JOINT spine2
      {
        OFFSET 0 10.3259 0
        CHANNELS 3 Zrotation Xrotation Yrotation
        JOINT Neck
        {
          OFFSET 0 26.511 1.26395
          CHANNELS 3 Zrotation Xrotation Yrotation
          JOINT Head
          {
            OFFSET 0 8.00966 0
            CHANNELS 3 Zrotation Xrotation Yrotation
            End Site
            {
              OFFSET 0 19.3879 -6.39386
            }
          }
        }
        JOINT RightShoulder
        {
          OFFSET -4.34795 11.1512 -0.605422
          CHANNELS 3 Zrotation Xrotation Yrotation
          JOINT RightArm
          {
            OFFSET 0 14.6258 0
            CHANNELS 3 Zrotation Xrotation Yrotation
            JOINT RightArmRoll
            {
              OFFSET 0 7.3834 0
              CHANNELS 3 Zrotation Xrotation Yrotation
              JOINT RightForeArm
              {
                OFFSET 0 21.5052 0
                CHANNELS 3 Zrotation Xrotation Yrotation
                JOINT RightForeArmRoll
                {
                  OFFSET 0 8.28532 0
                  CHANNELS 3 Zrotation Xrotation Yrotation
                  JOINT RightHand
                  {
                    OFFSET 0 16.6268 0
                    CHANNELS 3 Zrotation Xrotation Yrotation
                    End Site
                    {
                      OFFSET 0 0 0
                    }
                  }
                }
              }
            }
          }
        }
        JOINT LeftShoulder
        {
          OFFSET 4.34795 11.1512 -0.605422
          CHANNELS 3 Zrotation Xrotation Yrotation
          JOINT LeftArm
          {
            OFFSET 0 14.6258 0
            CHANNELS 3 Zrotation Xrotation Yrotation
            JOINT LeftArmRoll
            {
              OFFSET 0 7.3834 0
              CHANNELS 3 Zrotation Xrotation Yrotation
              JOINT LeftForeArm
              {
                OFFSET 0 21.5052 0
                CHANNELS 3 Zrotation Xrotation Yrotation
                JOINT LeftForeArmRoll
                {
                  OFFSET 0 8.28532 0
                  CHANNELS 3 Zrotation Xrotation Yrotation
                  JOINT LeftHand
                  {
                    OFFSET 0 16.6268 0
                    CHANNELS 3 Zrotation Xrotation Yrotation
                    End Site
                    {
                      OFFSET 0 0 0
                    }
                  }
                }
              }
            }
          }
        }
      }
    }
  }
  JOINT RightUpLeg
  {
    OFFSET -7.8151 -1.43309 -1.20217
    CHANNELS 3 Zrotation Xrotation Yrotation
    JOINT RightUpLegRoll
    {
      OFFSET 0 19.4959 0
      CHANNELS 3 Zrotation Xrotation Yrotation
      JOINT RightLeg
      {
        OFFSET 0 -24.1427 0
        CHANNELS 3 Zrotation Xrotation Yrotation
        JOINT RightLegRoll
        {
          OFFSET 0 24.2217 0
          CHANNELS 3 Zrotation Xrotation Yrotation
          JOINT RightFoot
          {
            OFFSET 0 20.1605 0
            CHANNELS 3 Zrotation Xrotation Yrotation
            JOINT RightToeBase
            {
              OFFSET 0 16.8532 0
              CHANNELS 3 Zrotation Xrotation Yrotation
              End Site
              {
                OFFSET 0.00714343 8.16187 -0.94078
              }
            }
          }
        }
      }
    }
  }
  JOINT LeftUpLeg
  {
    OFFSET 7.8151 -1.43309 -1.20217
    CHANNELS 3 Zrotation Xrotation Yrotation
    JOINT LeftUpLegRoll
    {
      OFFSET 0 19.496 0
      CHANNELS 3 Zrotation Xrotation Yrotation
      JOINT LeftLeg
      {
        OFFSET 0 24.1426 0
        CHANNELS 3 Zrotation Xrotation Yrotation
        JOINT LeftLegRoll
        {
          OFFSET 0 24.4456 0
          CHANNELS 3 Zrotation Xrotation Yrotation
          JOINT LeftFoot
          {
            OFFSET 0 19.9366 0
            CHANNELS 3 Zrotation Xrotation Yrotation
            JOINT LeftToeBase
            {
              OFFSET 0 16.8532 0
              CHANNELS 3 Zrotation Xrotation Yrotation
              End Site
              {
                OFFSET -0.0320138 8.16187 -0.94078
              }
            }
          }
        }
      }
    }
  }
}
MOTION
Frames: 4
Frame Time: 0.00208333
52.1954 100.693 17.9993 0.479842 -3.25608 5.92305 -0.0612078 -2.08133 -0.0831381 -0.121428 -0.167358 -0.156543 -0.119726 1.47771 -0.154535 4.53596 25.2534 -0.187279 -4.86539 -5.18289 0.624607 68.1406 -3.00299 -2.67703 104.356 18.5426 10.5661 7.95139e-015 -3.18055e-015 6.36111e-015 16.0477 0.120785 -0.487097 -1.10984e-006 3.25569e-006 -3.03625 8.02902 -4.95145 0.697683 -60.0299 -3.17226 2.09714 -111.977 13.3972 -4.95802 -2.3971e-005 -2.51784e-006 -1.65068e-006 -11.1814 3.45434 0.82534 9.60226e-006 -6.69242e-007 3.00001 -8.02887 -4.95146 -0.697692 177.504 -3.26713 0.0162827 180 7.01533e-015 178.863 178.745 4.43112 179.746 2.79751e-006 -2.08958e-006 0.0349916 -18.4583 67.7109 19.2845 8.13649 25.2327 -3.48774 -176.887 -2.50973 1.92606 4.54188e-006 -4.6773e-006 -1.15931 -2.30689 -6.78173 0.132285 -1.36302e-006 -6.64027e-007 -0.11218 19.3955 68.8317 -20.2393 -8.13649 25.2327 3.48774 
52.1968 100.694 18.0035 0.479345 -3.25921 5.9238 -0.0612078 -2.08182 -0.0831623 -0.121088 -0.167495 -0.15687 -0.119405 1.47757 -0.154868 4.53216 25.2529 -0.187282 -4.85731 -5.1714 0.624859 68.1463 -3.00021 -2.67613 104.349 18.5444 10.5337 2.66371e-014 -3.18055e-015 1.27222e-014 16.0709 0.114067 -0.47776 -1.10984e-006 3.25569e-006 -3.03605 8.02902 -4.95145 0.697683 -60.0331 -3.17344 2.09813 -111.969 13.3966 -4.95414 -2.3971e-005 -2.51784e-006 -1.65068e-006 -11.1861 3.4702 0.826528 9.60226e-006 -6.69242e-007 3.00001 -8.02887 -4.95146 -0.697692 177.505 -3.27058 0.0166119 180 7.01533e-015 178.863 178.745 4.4317 179.746 2.79751e-006 -2.08958e-006 0.0349916 -18.4583 67.7109 19.2845 8.13649 25.2327 -3.48774 -176.885 -2.51421 1.92562 4.54188e-006 -4.6773e-006 -1.15931 -2.30725 -6.78105 0.13227 -1.36302e-006 -6.64027e-007 -0.11218 19.3953 68.8315 -20.2391 -8.13649 25.2327 3.48774 
52.1947 100.69 18.0062 0.478803 -3.26247 5.92462 -0.0612078 -2.0823 -0.0831769 -0.120701 -0.167571 -0.15718 -0.119052 1.4775 -0.155186 4.52843 25.2523 -0.187352 -4.84919 -5.15984 0.625072 68.1519 -2.99751 -2.67526 104.343 18.5483 10.5051 -9.54166e-015 -3.18055e-015 -1.59028e-015 16.0911 0.103989 -0.468622 -1.10984e-006 3.25569e-006 -3.03591 8.02902 -4.95145 0.697683 -60.0361 -3.17463 2.09911 -111.962 13.3967 -4.95046 -2.3971e-005 -2.51784e-006 -1.65068e-006 -11.1905 3.48422 0.827485 9.60226e-006 -6.69242e-007 3.00001 -8.02887 -4.95146 -0.697692 177.506 -3.27421 0.0169245 180 7.01533e-015 178.863 178.745 4.43224 179.746 2.79751e-006 -2.08958e-006 0.0349916 -18.4583 67.7109 19.2845 8.13649 25.2327 -3.48774 -176.883 -2.51881 1.92498 4.54188e-006 -4.6773e-006 -1.15931 -2.30778 -6.78046 0.132231 -1.36302e-006 -6.64027e-007 -0.11218 19.395 68.8312 -20.2388 -8.13649 25.2327 3.48774 
52.1971 100.691 18.0025 0.478231 -3.26581 5.92548 -0.0612079 -2.08277 -0.0831847 -0.12028 -0.167604 -0.157479 -0.118676 1.47746 -0.155493 4.52475 25.2518 -0.187468 -4.84104 -5.14825 0.625257 68.1574 -2.99485 -2.67441 104.336 18.5538 10.4791 -3.97569e-015 -3.18055e-015 1.59028e-015 16.1092 0.0915568 -0.459624 -1.10984e-006 3.25569e-006 -3.03581 8.02902 -4.95145 0.697683 -60.0391 -3.17584 2.10009 -111.955 13.3972 -4.94691 -2.3971e-005 -2.51784e-006 -1.65068e-006 -11.1946 3.49696 0.828281 9.60226e-006 -6.69242e-007 3.00001 -8.02887 -4.95146 -0.697692 177.507 -3.27798 0.0172254 180 7.01533e-015 178.863 178.745 4.4328 179.746 2.79751e-006 -2.08958e-006 0.0349916 -18.4583 67.7109 19.2845 8.13649 25.2327 -3.48774 -176.882 -2.52348 1.92422 4.54188e-006 -4.6773e-006 -1.15931 -2.30844 -6.77993 0.132175 -1.36302e-006 -6.64027e-007 -0.11218 19.3947 68.8309 -20.2384 -8.13649 25.2327 3.48774 
